<svg xmlns="http://www.w3.org/2000/svg" width="16" height="16" fill="currentColor" class="bi bi-book" viewBox="0 0 16 16">
  <path d="M1 2.828c.885-.37 2.154-.769 3.388-.893 1.33-.134 2.458.063 3.112.752v9.746c-.935-.53-2.12-.603-3.213-.493-1.18.12-2.37.43-3.287.81V2.828zm7.5-.141c.654-.689 1.782-.886 3.112-.752 1.234.124 2.503.523 3.388.893v9.823c-.942-.38-2.167-.71-3.287-.81-1.094-.1-2.278.039-3.213.493V2.687zM8 1.783C7.015.936 5.587.81 4.287.94c-1.514.153-3.042.672-3.994 1.105A.5.5 0 0 0 0 2.5v11a.5.5 0 0 0 .707.455c.882-.4 2.347-.82 3.68-1.03 1.21-.194 2.5.02 3.615.62a.5.5 0 0 0 .618 0c1.115-.598 2.405-.814 3.615-.62 1.333.21 2.798.63 3.68 1.03a.5.5 0 0 0 .707-.455v-11a.5.5 0 0 0-.293-.455c-.952-.433-2.48-.952-3.994-1.105C10.413.809 8.985.936 8 1.783z"/>
</svg> 